inDegrees=no
num_controls=7
num_derivatives=13
num_iterations=128
num_multipliers=7
num_parameters=0
num_slacks=7
num_states=26
objective=0.448498
objective_accelerations=0.048817
objective_balance=0.007536
objective_effort=0.036421
objective_height=0.350783
objective_ligament=0.004940
solver_duration=1848.335634
status=Solve_Succeeded
success=true
DataType=double
version=3
OpenSimVersion=4.5
endheader
time	/jointset/ground_pelvis/pelvis_tilt/value	/jointset/ground_pelvis/pelvis_tx/value	/jointset/ground_pelvis/pelvis_ty/value	/jointset/hip_l/hip_flexion_l/value	/jointset/hip_l/hip_adduction_l/value	/jointset/hip_l/hip_rotation_l/value	/jointset/back/lumbar_extension/value	/jointset/patellofemoral_l/patellar_flexion_l/value	/jointset/knee_l/knee_flexion_l/value	/jointset/knee_l/knee_adduction_l/value	/jointset/knee_l/knee_rotation_l/value	/jointset/ankle_l/ankle_angle_l/value	/jointset/subtalar_l/subtalar_angle_l/value	/jointset/ground_pelvis/pelvis_tilt/speed	/jointset/ground_pelvis/pelvis_tx/speed	/jointset/ground_pelvis/pelvis_ty/speed	/jointset/hip_l/hip_flexion_l/speed	/jointset/hip_l/hip_adduction_l/speed	/jointset/hip_l/hip_rotation_l/speed	/jointset/back/lumbar_extension/speed	/jointset/patellofemoral_l/patellar_flexion_l/speed	/jointset/knee_l/knee_flexion_l/speed	/jointset/knee_l/knee_adduction_l/speed	/jointset/knee_l/knee_rotation_l/speed	/jointset/ankle_l/ankle_angle_l/speed	/jointset/subtalar_l/subtalar_angle_l/speed	/forceset/tau_hip_flexion_l	/forceset/tau_hip_adduction_l	/forceset/tau_hip_rotation_l	/forceset/tau_knee_flexion_l	/forceset/tau_ankle_angle_l	/forceset/tau_subtalar_angle_l	/forceset/tau_lumbar_extension	lambda_cid13_p0	lambda_cid13_p1	lambda_cid13_p2	lambda_cid13_p3	lambda_cid13_p4	lambda_cid13_p5	lambda_cid14_p0	/jointset/ground_pelvis/pelvis_tilt/accel	/jointset/ground_pelvis/pelvis_tx/accel	/jointset/ground_pelvis/pelvis_ty/accel	/jointset/hip_l/hip_flexion_l/accel	/jointset/hip_l/hip_adduction_l/accel	/jointset/hip_l/hip_rotation_l/accel	/jointset/back/lumbar_extension/accel	/jointset/patellofemoral_l/patellar_flexion_l/accel	/jointset/knee_l/knee_flexion_l/accel	/jointset/knee_l/knee_adduction_l/accel	/jointset/knee_l/knee_rotation_l/accel	/jointset/ankle_l/ankle_angle_l/accel	/jointset/subtalar_l/subtalar_angle_l/accel	gamma_cid13_p0	gamma_cid13_p1	gamma_cid13_p2	gamma_cid13_p3	gamma_cid13_p4	gamma_cid13_p5	gamma_cid14_p0
1.5	-0.4472044827923558	-0.07518374435934834	0.7629538192712612	1.265910310915441	-0.3099976448734983	-0.0469949385355701	-0.3444452971916162	0.6869386704582471	0.6869386704581771	-0.173540639023276	0.1744222332954955	0.03393528655859104	-0.04992491469294821	0.7306062465862946	0.266851542849404	0.4888644376763271	-2.339070254221987	0.0330161920260453	-0.607166003317777	0.5709152062846168	-1.744008295377327	-1.744008295377314	0.004730759003463573	-0.001319985381391803	-0.2281755288230564	0.008550854788601308	-0.2492555851311672	0.03249335942308505	-0.02129724787122162	-0.2020513151282717	0.1458160244475688	0.0284120842543144	0.2246390862744836	7.490634285348182	-16.3857864359323	5.333794245918185	-5.659295208675562	-610.0687432872267	-46.67139801034526	-28.42114774077458	0.6258746832256411	0.6798329585130597	-0.2988733145529647	-1.517257901585215	0.5780105612054858	-0.2910986796348692	1.725456666846308	-1.083137381882664	-1.08313738188273	0.02429876971193001	-0.02654247768673761	-0.1350179864726636	0.5563942108786589	2.582314423592714e-07	7.739591112675289e-07	-1.272358201827357e-06	-6.835425795096983e-08	3.523906986903097e-07	-4.443166268482261e-08	2.909857309990838e-07
1.51	-0.4398674246367035	-0.0724814576911149	0.7678265469526639	1.242446083881495	-0.3096394885067263	-0.05308081098014867	-0.3386513973707316	0.6694469834910087	0.6694469834909581	-0.1734937842510499	0.1744089972832619	0.03164707328344196	-0.04981254442443678	0.7367081335646015	0.2735747535781491	0.4855797495813373	-2.353436516075633	0.03862711423204305	-0.609884246951412	0.5877802733167805	-1.754057500113273	-1.754057500113304	0.004625656681797806	-0.001359064852449775	-0.2294053747792477	0.01393874985689865	-0.2411644833991306	0.03172377788110776	-0.02115994444744409	-0.2006277310320633	0.1457089180258932	0.02777773240052368	0.218336473592976	7.70149836692493	-16.2646357573622	5.448610030043381	-5.632246017776989	-605.4709667151466	-46.99885969586603	-29.41939338965278	0.5877747226989239	0.663932676746667	-0.3584195420328767	-1.345494010204159	0.5543447215333874	-0.2433438675224188	1.654359035064391	-0.9251124857276672	-0.9251124857342199	-0.02991051822004614	0.00277237538168347	-0.1076919305118535	0.5321867290008397	1.39128792254783e-07	1.02679610926828e-06	-7.107614016874644e-07	5.30870353520888e-08	2.827284612456668e-07	3.147787076330498e-08	2.314622846596885e-07
1.52	-0.4324722618077554	-0.06971286540625571	0.7726633971561047	1.218848357492419	-0.3092248805836462	-0.05919009719353754	-0.3326913814167929	0.6518629443831627	0.6518629443831196	-0.1734483796590691	0.1743944430877377	0.02934841674266582	-0.04964585529040329	0.7422271812455397	0.2801126661745574	0.4816889420839095	-2.365770125247268	0.04430650328751178	-0.6118487570768327	0.6041384328954637	-1.762478723500306	-1.76247872350038	0.004440722955559112	-0.001583622035625694	-0.2302641819482195	0.01941462789301705	-0.2330733816671238	0.03095419633908324	-0.02102264102372771	-0.1992041469358618	0.1456018116042002	0.02714338054668159	0.2120338609114548	7.904830459999425	-16.14445645834591	5.566196608478408	-5.592272654278114	-600.9913422798951	-47.38180632266474	-30.39938744198832	0.5093068237518589	0.6427733320457153	-0.4200971950405776	-1.110727365183032	0.5917039310996804	-0.1403519779920528	1.624075176150195	-0.7575411121003476	-0.7575411121000738	0.00833248879733978	-0.06363802011032767	-0.06081022902876543	0.5739908044428723	7.37389994775793e-08	1.193439219371493e-06	-4.0903227832391e-07	1.216507873072012e-07	2.49998657310614e-07	8.439667530215718e-08	2.018295633024243e-07
1.53	-0.425025011313292	-0.06687995694084595	0.7774583834696825	1.195137473674464	-0.3087533260143269	-0.06531606732480018	-0.3265706540914258	0.6342025406578681	0.6342025406579034	-0.1734051408694761	0.174377349618387	0.02704272428418415	-0.04942421081985984	0.7471033342187711	0.286423363400607	0.4772136524009347	-2.376057141527142	0.05000157766525784	-0.6132768429744603	0.619891070350464	-1.769358225877936	-1.769358225877928	0.004197445847162261	-0.00182374153860974	-0.2308420593641702	0.02490944939685166	-0.2246578509494958	0.02995473290423276	-0.02095897663273922	-0.1980581263094875	0.145712634248914	0.02634819416304698	0.205410439231664	8.166205470993686	-15.96559189353817	5.675571944862776	-5.467122831916651	-596.5533411614965	-47.70358178587389	-31.35678826100035	0.4588467037543872	0.6183965240041051	-0.4753930904913643	-0.9352453688150976	0.5578626882596046	-0.1335589214653582	1.533463756042059	-0.6166264673058381	-0.6166264672936735	-0.04188517420018581	-0.002362047669176344	-0.0514242329219504	0.5363425061494334	6.541911761061492e-08	1.268501323583572e-06	-3.834125615352115e-07	1.340321515801214e-07	2.565095639795e-07	1.128878303749046e-07	2.039557372386743e-07
